<?xml version="1.0" encoding="UTF-8"?><svg id="AI_COE_logo" xmlns="http://www.w3.org/2000/svg" viewBox="0 0 555.87 199.75"><defs><style>.cls-1{fill:#fff;}.cls-2{fill:none;}</style></defs><g id="Center"><rect class="cls-2" x="217.2" y="16.26" width="445.09" height="133.25"/><path class="cls-1" d="M219.65,80.01v-.07c0-7.13,5.33-13.03,12.74-13.03,4.57,0,7.31,1.62,9.83,4l-1.94,2.09c-2.12-2.02-4.5-3.46-7.92-3.46-5.58,0-9.76,4.54-9.76,10.33v.07c0,5.83,4.21,10.4,9.76,10.4,3.46,0,5.72-1.33,8.13-3.64l1.87,1.84c-2.63,2.66-5.51,4.43-10.08,4.43-7.27,0-12.63-5.72-12.63-12.96Z"/><path class="cls-1" d="M247.48,67.34h18.21v2.59h-15.37v8.6h13.75v2.59h-13.75v8.82h15.55v2.59h-18.39v-25.2Z"/><path class="cls-1" d="M271.6,67.34h2.66l15.88,20.19v-20.19h2.77v25.2h-2.27l-16.27-20.66v20.66h-2.77v-25.2Z"/><path class="cls-1" d="M306.59,69.97h-8.49v-2.63h19.83v2.63h-8.5v22.57h-2.84v-22.57Z"/><path class="cls-1" d="M323.11,67.34h18.21v2.59h-15.37v8.6h13.75v2.59h-13.75v8.82h15.55v2.59h-18.39v-25.2Z"/><path class="cls-1" d="M347.23,67.34h10.84c3.1,0,5.58.94,7.16,2.52,1.22,1.22,1.94,2.99,1.94,4.97v.07c0,4.18-2.88,6.62-6.84,7.34l7.74,10.29h-3.49l-7.31-9.79h-7.2v9.79h-2.84v-25.2ZM357.82,80.19c3.78,0,6.48-1.94,6.48-5.18v-.07c0-3.1-2.38-4.97-6.44-4.97h-7.78v10.22h7.74Z"/><path class="cls-1" d="M382.94,80.01v-.07c0-6.95,5.22-13.03,12.89-13.03s12.81,6.01,12.81,12.96v.07c0,6.95-5.22,13.03-12.89,13.03s-12.81-6.01-12.81-12.96ZM405.69,80.01v-.07c0-5.72-4.18-10.4-9.94-10.4s-9.86,4.61-9.86,10.33v.07c0,5.72,4.18,10.4,9.93,10.4s9.86-4.61,9.86-10.33Z"/><path class="cls-1" d="M414.66,67.34h18.11v2.63h-15.26v9h13.64v2.59h-13.64v10.98h-2.84v-25.2Z"/><path class="cls-1" d="M220.18,108.94h27.03v7.87h-17.81v5.14h16.13v7.34h-16.13v5.33h18.05v7.92h-27.27v-33.6Z"/><path class="cls-1" d="M283.4,108.94l-11.04,16.37,11.52,17.23h-10.71l-6.43-10.18-6.48,10.18h-10.46l11.52-17.09-11.04-16.51h10.71l5.9,9.46,6.05-9.46h10.46Z"/><path class="cls-1" d="M283.73,125.83v-.1c0-9.79,7.49-17.47,17.67-17.47,6.86,0,11.28,2.88,14.26,6.96l-7.01,5.42c-1.92-2.35-4.13-3.94-7.35-3.94-4.7,0-8.02,4.03-8.02,8.93v.1c0,5.04,3.31,8.98,8.02,8.98,3.51,0,5.57-1.63,7.59-4.08l7.01,4.99c-3.17,4.37-7.44,7.58-14.83,7.58-9.6,0-17.33-7.34-17.33-17.38Z"/><path class="cls-1" d="M319.92,108.94h27.03v7.87h-17.81v5.14h16.13v7.34h-16.13v5.33h18.05v7.92h-27.27v-33.6Z"/><path class="cls-1" d="M351.99,108.94h9.31v25.44h16.27v8.16h-25.59v-33.6Z"/><path class="cls-1" d="M381.6,108.94h9.31v25.44h16.27v8.16h-25.59v-33.6Z"/><path class="cls-1" d="M411.22,108.94h27.03v7.87h-17.81v5.14h16.13v7.34h-16.13v5.33h18.05v7.92h-27.27v-33.6Z"/><path class="cls-1" d="M443.28,108.94h8.69l13.83,17.76v-17.76h9.22v33.6h-8.11l-14.4-18.43v18.43h-9.22v-33.6Z"/><path class="cls-1" d="M479.86,125.83v-.1c0-9.79,7.49-17.47,17.67-17.47,6.87,0,11.28,2.88,14.26,6.96l-7.01,5.42c-1.92-2.35-4.13-3.94-7.34-3.94-4.71,0-8.02,4.03-8.02,8.93v.1c0,5.04,3.31,8.98,8.02,8.98,3.5,0,5.57-1.63,7.58-4.08l7.01,4.99c-3.17,4.37-7.44,7.58-14.83,7.58-9.6,0-17.33-7.34-17.33-17.38Z"/><path class="cls-1" d="M516.05,108.94h27.03v7.87h-17.81v5.14h16.13v7.34h-16.13v5.33h18.05v7.92h-27.27v-33.6Z"/></g><g id="AI_Box"><path class="cls-1" d="M188.59,12.36v175.84H12.75V12.36h175.84M189.59,11.36H11.75v177.84h177.84V11.36h0Z"/></g><g id="AI"><path class="cls-1" d="M83.49,31.96h11.61l50.06,110.64h-13.34l-12.87-29.03h-59.79l-13.03,29.03h-12.71L83.49,31.96ZM114.09,102.42l-24.95-56.03-25.11,56.03h50.06Z"/><path class="cls-1" d="M155.65,32.74h12.4v109.86h-12.4V32.74Z"/></g><g id="AI_dots_white"><circle class="cls-1" cx="40.31" cy="163.05" r="6.73"/><circle class="cls-1" cx="134.58" cy="163.05" r="6.73"/><circle class="cls-1" cx="161.52" cy="163.05" r="6.73"/><rect class="cls-1" x="60.51" y="156.31" width="40.41" height="13.5" rx="6.74" ry="6.74"/></g></svg>